# xmcd CD database file
#
# Track frame offsets:
#	150
#	19500
#	35575
#	49050
#	65325
#	80225
#	96575
#	114225
#	136650
#	152125
#	167325
#	183025
#
# Disc length: 2600 seconds
#
# Revision: 0
# Processed by: cddbd v1.4PL0 Copyright (c) Steve Scherf et al.
# Submitted via: CDex 1.50beta10
#
DISCID=900a260c
DTITLE=Shorty Rogers - The big Shorty Rogers express - Shorty Rogers and his Giants
DYEAR=1957
DGENRE=Jazz
TTITLE0=Blue express
TTITLE1=Pink squirrel
TTITLE2=Coop de graas
TTITLE3=Infinity promenade
TTITLE4=Short stop
TTITLE5=Boar-Jibu
TTITLE6=Pay the piper
TTITLE7=At home with sweets
TTITLE8=Tale of an african lobster
TTITLE9=Contours
TTITLE10=Chiquito loco
TTITLE11=The sweetheart of Sigmund Freud
EXTD=YEAR: 1957
EXTT0=
EXTT1=
EXTT2=
EXTT3=
EXTT4=
EXTT5=
EXTT6=
EXTT7=
EXTT8=
EXTT9=
EXTT10=
EXTT11=
PLAYORDER=
